<svg viewBox="0 0 512 512" xmlns="http://www.w3.org/2000/svg" fill="#fff"><path d="m430.011719 166-114.011719-91.210938v46.210938h-10.53125c-34.855469 0-67.5625 17.527344-86.96875 46.171875-19.40625-28.644531-52.113281-46.171875-86.96875-46.171875h-40.53125v90h40.53125c5.3125 0 10.277344 2.851562 12.957031 7.441406l21.914063 37.558594-21.910156 37.554688c-2.679688 4.59375-7.648438 7.445312-12.960938 7.445312h-40.53125v90h40.53125c34.855469 0 67.5625-17.527344 86.96875-46.171875 19.40625 28.644531 52.113281 46.171875 86.96875 46.171875h10.53125v46.210938l114.011719-91.210938-112.5-90zm-259.613281 37.320312c-8.035157-13.765624-22.929688-22.320312-38.867188-22.320312h-10.53125v-30h10.53125c26.570312 0 51.394531 14.257812 64.785156 37.207031l4.816406 8.261719-17.367187 29.765625zm25.917968 120.472657c-13.390625 22.949219-38.214844 37.207031-64.785156 37.207031h-10.53125v-30h10.53125c15.9375 0 30.832031-8.554688 38.871094-22.324219l70.28125-120.46875c13.390625-22.949219 38.214844-37.207031 64.785156-37.207031h40.53125v-13.789062l35.988281 28.789062-35.988281 28.789062v-13.789062h-40.53125c-15.9375 0-30.832031 8.554688-38.871094 22.324219zm149.683594-6.582031 35.988281 28.789062-35.988281 28.789062v-13.789062h-40.53125c-26.570312 0-51.394531-14.257812-64.785156-37.207031l-4.816406-8.261719 17.367187-29.765625 13.367187 22.914063c8.035157 13.765624 22.929688 22.320312 38.867188 22.320312h40.53125zm-30-16.210938h-10.53125c-5.3125 0-10.277344-2.851562-12.957031-7.441406l-21.914063-37.558594 21.910156-37.554688c2.683594-4.59375 7.648438-7.445312 12.960938-7.445312h10.53125zm0 0"/></svg>